<svg width="618" height="73" viewBox="0 0 618 73" fill="none" xmlns="http://www.w3.org/2000/svg">
<path fill-rule="evenodd" clip-rule="evenodd" d="M251.656 55.3191C251.656 58.1858 252.358 60.3525 253.762 61.8191C255.165 63.2191 256.736 63.9191 258.474 63.9191C259.476 63.9191 260.479 63.6858 261.481 63.2191C262.484 62.7525 263.386 62.0525 264.188 61.1191C264.99 60.1191 265.625 58.8858 266.093 57.4191C266.628 55.9525 266.895 54.2525 266.895 52.3191V41.2191H258.975V34.5191H276.82V71.6191H269.702V63.3191H269C267.998 66.4525 266.293 68.7858 263.887 70.3191C261.481 71.8525 258.908 72.6191 256.168 72.6191C254.363 72.6191 252.592 72.2858 250.854 71.6191C249.117 70.8858 247.546 69.7858 246.142 68.3191C244.806 66.7858 243.703 64.8858 242.834 62.6191C242.032 60.3525 241.631 57.6858 241.631 54.6191L241.631 18.6191C241.631 15.4858 242.065 12.7858 242.934 10.5191C243.803 8.25247 245.006 6.38581 246.543 4.91914C248.148 3.45247 250.019 2.38581 252.158 1.71914C254.296 0.985806 256.636 0.619141 259.175 0.619141C261.715 0.619141 264.054 0.985806 266.193 1.71914C268.332 2.38581 270.17 3.48581 271.707 5.01914C273.311 6.48581 274.548 8.35247 275.416 10.6191C276.352 12.8191 276.82 15.4858 276.82 18.6191V29.8191L266.895 29.8191V18.0191C266.895 16.4191 266.661 15.0858 266.193 14.0191C265.792 12.8858 265.224 11.9858 264.489 11.3191C263.82 10.6525 263.018 10.1858 262.083 9.91914C261.214 9.58581 260.278 9.41914 259.276 9.41914C258.34 9.41914 257.404 9.58581 256.469 9.91914C255.533 10.1858 254.697 10.6525 253.962 11.3191C253.294 11.9858 252.726 12.8858 252.258 14.0191C251.857 15.0858 251.656 16.4191 251.656 18.0191V55.3191ZM70.9205 1.51914L70.9205 71.5191H60.8952L60.8952 40.0191H47.4612L47.4612 71.5191L37.4359 71.5191L37.4359 1.51914L47.4612 1.51914L47.4612 31.3191L60.8952 31.3191L60.8952 1.51914L70.9205 1.51914ZM33.4626 10.3191L21.9334 10.3191L21.9334 71.6191H11.9081L11.9081 10.3191L0.378906 10.3191L0.378906 1.61914L33.4626 1.61914V10.3191ZM86.5248 30.8191L86.5248 10.3191L101.563 10.3191V1.61914L76.4995 1.61914L76.4995 71.6191H102.064V62.9191H86.5248L86.5248 39.5191H101.062V30.8191L86.5248 30.8191ZM316.476 71.6191L305.749 1.61914L290.009 1.61914L279.181 71.6191H289.207L292.315 51.3191H303.242L306.45 71.6191L316.476 71.6191ZM298.129 17.9191L301.939 42.6191H293.618L297.428 17.9191H298.129ZM329.886 1.61914V62.9191L344.924 62.9191V71.6191H319.861V1.61914L329.886 1.61914ZM358.474 62.9191V1.61914L348.449 1.61914V71.6191H373.512V62.9191H358.474ZM387.062 10.3191V30.8191H401.599V39.5191H387.062V62.9191H402.601V71.6191L377.037 71.6191V1.61914L402.1 1.61914V10.3191L387.062 10.3191ZM436.369 6.41914C433.295 3.21914 428.951 1.61914 423.337 1.61914L406.995 1.61914V71.6191H417.021V43.1191L423.236 43.1191C425.776 43.1191 427.714 43.8858 429.051 45.4191C430.388 46.8858 431.056 49.0191 431.056 51.8191V57.2191C431.056 60.0191 431.089 62.6191 431.156 65.0191C431.223 67.3525 431.524 69.5525 432.059 71.6191H442.084C441.683 69.8191 441.416 67.8525 441.282 65.7191C441.148 63.5191 441.081 60.7191 441.081 57.3191L441.081 56.0191C441.081 53.6191 440.781 51.4525 440.179 49.5191C439.644 47.5191 438.876 45.8191 437.873 44.4191C436.938 42.9525 435.835 41.7858 434.565 40.9191C433.362 39.9858 432.059 39.3858 430.655 39.1191V38.4191C433.462 37.8858 435.902 36.1525 437.974 33.2191C440.045 30.2858 441.081 26.1525 441.081 20.8191V20.4191C441.081 14.2858 439.511 9.61914 436.369 6.41914ZM423.236 34.4191L417.021 34.4191V10.3191H423.236C425.776 10.3191 427.714 11.1191 429.051 12.7191C430.388 14.3191 431.056 16.6191 431.056 19.6191V25.1191C431.056 28.1191 430.388 30.4191 429.051 32.0191C427.714 33.6191 425.776 34.4191 423.236 34.4191ZM461.477 1.61914L458.97 37.6191H459.672L475.412 1.61914L485.437 1.61914L460.775 51.7191L455.863 71.6191L445.837 71.6191L450.75 51.7191L451.351 1.61914L461.477 1.61914ZM540.165 71.6191V1.61914L530.139 1.61914V41.8191H517.407V1.61914L507.382 1.61914V50.5191L530.139 50.5191V71.6191H540.165ZM546.049 18.6191C546.049 12.9525 547.586 8.55247 550.661 5.41914C553.735 2.21914 558.046 0.619141 563.594 0.619141C569.074 0.619141 573.318 2.18581 576.326 5.31914C579.333 8.38581 580.837 12.8191 580.837 18.6191V20.1191C580.837 25.9191 579.801 30.7191 577.729 34.5191C575.657 38.3191 572.817 41.3191 569.208 43.5191L567.604 44.5191C565.599 45.7858 563.861 46.9525 562.391 48.0191C560.92 49.0858 559.717 50.1858 558.781 51.3191C557.846 52.3858 557.144 53.5858 556.676 54.9191C556.275 56.1858 556.075 57.6858 556.075 59.4191V62.1191H580.336V71.6191L546.049 71.6191V61.2191C546.049 58.1525 546.316 55.5191 546.851 53.3191C547.386 51.1191 548.154 49.1858 549.157 47.5191C550.226 45.7858 551.53 44.2525 553.067 42.9191C554.604 41.5858 556.409 40.2858 558.481 39.0191L559.984 38.1191C561.856 36.9858 563.46 35.9525 564.797 35.0191C566.133 34.0191 567.236 32.9858 568.105 31.9191C569.041 30.8525 569.709 29.6858 570.11 28.4191C570.578 27.1525 570.812 25.6191 570.812 23.8191V17.9191C570.812 15.1858 570.177 13.0858 568.907 11.6191C567.637 10.0858 565.833 9.31914 563.493 9.31914C561.154 9.31914 559.316 10.0858 557.979 11.6191C556.709 13.0858 556.075 15.1858 556.075 17.9191V29.6191H546.049V18.6191ZM123.742 35.315L219.978 35.315L219.978 31.0316L123.742 31.0316L123.742 35.315ZM123.742 39.599L219.978 39.599V35.3155L123.742 35.3155V39.599ZM601.941 3.09592C600.503 4.72647 599.784 7.15165 599.784 10.3715V12.9411C599.784 16.2435 600.483 18.7306 601.881 20.4024C603.278 22.0742 605.506 22.9102 608.564 22.9102C611.663 22.9102 613.941 22.0639 615.4 20.3715C616.878 18.6584 617.617 16.2125 617.617 13.034V10.3715C617.617 7.23421 616.868 4.82967 615.369 3.15784C613.87 1.46537 611.602 0.619141 608.564 0.619141C605.607 0.619141 603.4 1.44473 601.941 3.09592ZM603.612 19.1331C602.539 17.8947 602.002 15.9236 602.002 13.2198V10.1547C602.002 7.57477 602.559 5.66558 603.673 4.42719C604.787 3.16816 606.458 2.53865 608.686 2.53865C610.914 2.53865 612.584 3.16816 613.698 4.42719C614.833 5.66558 615.4 7.57477 615.4 10.1547V13.2507C615.4 15.9133 614.843 17.874 613.729 19.1331C612.615 20.3715 610.914 20.9907 608.625 20.9907C606.357 20.9907 604.686 20.3715 603.612 19.1331ZM611.177 6.22286C610.63 5.6243 609.84 5.32502 608.807 5.32502H605.708V18.3281H607.622V13.0959H608.777C609.668 13.0959 610.114 13.6119 610.114 14.6439V15.6656V17.0897C610.134 17.5232 610.195 17.936 610.296 18.3281H612.21C612.129 17.9772 612.078 17.6057 612.058 17.2136C612.038 16.8214 612.027 16.3054 612.027 15.6656V15.4179C612.027 14.5097 611.835 13.7977 611.45 13.2817C611.086 12.745 610.65 12.4251 610.144 12.3219L610.144 12.1052C610.65 12.002 611.086 11.6924 611.45 11.1764C611.835 10.6398 612.027 9.87611 612.027 8.8854L612.027 8.82347C612.027 7.66764 611.744 6.80077 611.177 6.22286ZM608.777 11.3622H607.622V7.05877H608.777C609.243 7.05877 609.577 7.18261 609.779 7.43029C610.002 7.67796 610.114 8.08044 610.114 8.63772V9.69035C610.114 10.8049 609.668 11.3622 608.777 11.3622Z" fill="white"/>
</svg>
